<svg width="180" height="24" viewBox="0 0 180 24" fill="none" xmlns="http://www.w3.org/2000/svg">
<path d="M18 0L0 18L0 22.7929C0 23.2383 0.53857 23.4614 0.853552 23.1464L7.58579 16.4142C8.36683 15.6332 9.63316 15.6332 10.4142 16.4142L18 24H22.7929C23.2383 24 23.4614 23.4614 23.1464 23.1464L13.4142 13.4142C12.6332 12.6332 12.6332 11.3668 13.4142 10.5858L23.1464 0.853553C23.4614 0.538571 23.2383 0 22.7929 0L18 0Z" fill="black"/>
<path d="M11.7929 0L2 0C0.895431 0 0 0.89543 0 2L0 11.7929C0 12.2383 0.538572 12.4614 0.853554 12.1464L12.1464 0.853553C12.4614 0.538571 12.2383 0 11.7929 0Z" fill="black"/>
<path d="M8.29289 20.7071L5.85355 23.1464C5.53857 23.4614 5.76165 24 6.20711 24H11.7929C12.2383 24 12.4614 23.4614 12.1464 23.1464L9.70711 20.7071C9.31658 20.3166 8.68342 20.3166 8.29289 20.7071Z" fill="#E73232"/>
<path d="M38.3475 14.8805L36.0076 17.3459V21.7987H32V4.18868H36.0076V12.4151L43.7241 4.18868H48.2047L40.986 12.0377L48.6278 21.7987H43.9233L38.3475 14.8805Z" fill="#333333"/>
<path d="M53.6179 10.0503C54.0826 9.39623 54.7049 8.90147 55.4848 8.56604C56.2814 8.23061 57.1941 8.06289 58.2229 8.06289V11.6855C57.7915 11.652 57.5011 11.6352 57.3517 11.6352C56.2399 11.6352 55.3686 11.9539 54.7381 12.5912C54.1075 13.2117 53.7922 14.1509 53.7922 15.4088V21.7987H49.909V8.26415H53.6179V10.0503Z" fill="#333333"/>
<path d="M67.156 18.8553C67.853 18.8553 68.467 18.7547 68.998 18.5535C69.5457 18.3354 70.0518 18 70.5165 17.5472L72.5825 19.8113C71.3213 21.2704 69.4793 22 67.0565 22C65.5464 22 64.2105 21.7065 63.0489 21.1195C61.8872 20.5157 60.9911 19.6855 60.3605 18.6289C59.7299 17.5723 59.4146 16.3732 59.4146 15.0314C59.4146 13.7065 59.7216 12.5157 60.3356 11.4591C60.9662 10.3857 61.8209 9.55556 62.8995 8.96855C63.9948 8.36478 65.2228 8.06289 66.5835 8.06289C67.8613 8.06289 69.0229 8.33962 70.0684 8.89308C71.1139 9.42977 71.9436 10.218 72.5576 11.2579C73.1882 12.2809 73.5035 13.4969 73.5035 14.9057L63.5965 16.8428C63.8786 17.5136 64.3184 18.0168 64.9158 18.3522C65.5298 18.6876 66.2765 18.8553 67.156 18.8553ZM66.5835 11.0314C65.6044 11.0314 64.8079 11.3501 64.1939 11.9874C63.5799 12.6247 63.2563 13.5052 63.2231 14.6289L69.7448 13.3459C69.5623 12.6415 69.1889 12.0797 68.6247 11.6604C68.0604 11.2411 67.3801 11.0314 66.5835 11.0314Z" fill="#333333"/>
<path d="M89.7047 8.26415V21.7987H85.9958V20.239C85.0333 21.413 83.6393 22 81.8139 22C80.5527 22 79.4077 21.7149 78.3788 21.1447C77.3666 20.5744 76.57 19.761 75.9892 18.7044C75.4084 17.6478 75.118 16.4235 75.118 15.0314C75.118 13.6394 75.4084 12.4151 75.9892 11.3585C76.57 10.3019 77.3666 9.48847 78.3788 8.91824C79.4077 8.34801 80.5527 8.06289 81.8139 8.06289C83.5232 8.06289 84.859 8.60797 85.8215 9.69811V8.26415H89.7047ZM82.486 18.7799C83.4651 18.7799 84.2782 18.4444 84.9254 17.7736C85.5726 17.086 85.8962 16.1719 85.8962 15.0314C85.8962 13.891 85.5726 12.9853 84.9254 12.3145C84.2782 11.6268 83.4651 11.283 82.486 11.283C81.4903 11.283 80.6689 11.6268 80.0217 12.3145C79.3745 12.9853 79.0509 13.891 79.0509 15.0314C79.0509 16.1719 79.3745 17.086 80.0217 17.7736C80.6689 18.4444 81.4903 18.7799 82.486 18.7799Z" fill="#333333"/>
<path d="M101.365 21.1447C100.983 21.4298 100.51 21.6478 99.946 21.7987C99.3984 21.9329 98.8258 22 98.2284 22C96.6187 22 95.3824 21.5891 94.5195 20.7673C93.6566 19.9455 93.2251 18.7379 93.2251 17.1447V5.27044H97.1083V8.56604H100.419V11.5849H97.1083V17.0943C97.1083 17.6646 97.2493 18.109 97.5315 18.4277C97.8136 18.7296 98.2201 18.8805 98.7512 18.8805C99.3486 18.8805 99.8796 18.7128 100.344 18.3774L101.365 21.1447Z" fill="#333333"/>
<path d="M111.623 21.1447C111.241 21.4298 110.768 21.6478 110.204 21.7987C109.657 21.9329 109.084 22 108.487 22C106.877 22 105.641 21.5891 104.778 20.7673C103.915 19.9455 103.483 18.7379 103.483 17.1447V5.27044H107.367V8.56604H110.677V11.5849H107.367V17.0943C107.367 17.6646 107.508 18.109 107.79 18.4277C108.072 18.7296 108.478 18.8805 109.009 18.8805C109.607 18.8805 110.138 18.7128 110.602 18.3774L111.623 21.1447Z" fill="#333333"/>
<path d="M113.816 8.26415H117.699V21.7987H113.816V8.26415ZM115.758 6.37736C115.044 6.37736 114.463 6.16772 114.015 5.74843C113.567 5.32914 113.343 4.80922 113.343 4.18868C113.343 3.56813 113.567 3.04822 114.015 2.62893C114.463 2.20964 115.044 2 115.758 2C116.471 2 117.052 2.20126 117.5 2.60377C117.948 3.00629 118.172 3.50943 118.172 4.11321C118.172 4.7673 117.948 5.31237 117.5 5.74843C117.052 6.16772 116.471 6.37736 115.758 6.37736Z" fill="#333333"/>
<path d="M129.816 21.7987L126.879 17.6478L123.842 21.7987H119.611L124.763 14.9811L119.785 8.26415H124.141L126.979 12.2138L129.891 8.26415H134.023L129.045 14.8805L134.222 21.7987H129.816Z" fill="#333333"/>
<path d="M140.822 12.76L135.146 23.776H134.15L139.814 12.76H140.822ZM143.865 21.4C144.217 21.4 144.517 21.344 144.765 21.232C145.021 21.12 145.237 20.972 145.413 20.788C145.597 20.604 145.757 20.404 145.893 20.188L146.469 20.644C146.317 20.94 146.113 21.204 145.857 21.436C145.601 21.66 145.305 21.836 144.969 21.964C144.633 22.084 144.261 22.144 143.853 22.144C143.157 22.144 142.561 22.008 142.065 21.736C141.569 21.456 141.189 21.06 140.925 20.548C140.661 20.036 140.529 19.428 140.529 18.724C140.529 18.02 140.661 17.416 140.925 16.912C141.197 16.4 141.585 16.008 142.089 15.736C142.593 15.464 143.193 15.328 143.889 15.328C144.313 15.328 144.685 15.36 145.005 15.424C145.333 15.488 145.601 15.56 145.809 15.64C146.025 15.72 146.177 15.796 146.265 15.868V17.788H145.185V16.192C145.265 16.192 145.337 16.208 145.401 16.24C145.473 16.264 145.533 16.3 145.581 16.348C145.637 16.388 145.677 16.432 145.701 16.48C145.725 16.528 145.737 16.572 145.737 16.612C145.553 16.46 145.301 16.332 144.981 16.228C144.661 16.124 144.301 16.072 143.901 16.072C143.381 16.072 142.953 16.176 142.617 16.384C142.289 16.584 142.045 16.884 141.885 17.284C141.733 17.676 141.657 18.156 141.657 18.724C141.657 19.172 141.697 19.564 141.777 19.9C141.865 20.236 141.997 20.516 142.173 20.74C142.357 20.964 142.589 21.132 142.869 21.244C143.149 21.348 143.481 21.4 143.865 21.4ZM154.041 18.736C154.041 19.44 153.905 20.048 153.633 20.56C153.369 21.072 152.993 21.464 152.505 21.736C152.017 22.008 151.441 22.144 150.777 22.144C150.113 22.144 149.537 22.008 149.049 21.736C148.561 21.464 148.181 21.072 147.909 20.56C147.645 20.048 147.513 19.44 147.513 18.736C147.513 18.208 147.589 17.736 147.741 17.32C147.893 16.896 148.109 16.536 148.389 16.24C148.677 15.944 149.021 15.72 149.421 15.568C149.829 15.408 150.281 15.328 150.777 15.328C151.273 15.328 151.721 15.408 152.121 15.568C152.521 15.72 152.865 15.944 153.153 16.24C153.441 16.536 153.661 16.896 153.813 17.32C153.965 17.736 154.041 18.208 154.041 18.736ZM148.641 18.736C148.641 19.336 148.717 19.836 148.869 20.236C149.029 20.628 149.265 20.92 149.577 21.112C149.897 21.304 150.297 21.4 150.777 21.4C151.265 21.4 151.665 21.308 151.977 21.124C152.289 20.932 152.521 20.636 152.673 20.236C152.833 19.836 152.913 19.336 152.913 18.736C152.913 18.16 152.833 17.676 152.673 17.284C152.521 16.884 152.289 16.584 151.977 16.384C151.665 16.176 151.265 16.072 150.777 16.072C150.297 16.072 149.897 16.176 149.577 16.384C149.265 16.584 149.029 16.884 148.869 17.284C148.717 17.676 148.641 18.16 148.641 18.736ZM157.313 12.82V20.752C157.313 21.016 157.405 21.196 157.589 21.292C157.773 21.38 158.025 21.424 158.345 21.424H158.393V22H155.189V21.424H155.237C155.557 21.424 155.809 21.38 155.993 21.292C156.177 21.196 156.269 21.016 156.269 20.752V14.032C156.269 13.912 156.233 13.824 156.161 13.768C156.089 13.704 155.981 13.652 155.837 13.612C155.701 13.572 155.525 13.532 155.309 13.492L155.189 13.468V12.82H157.313ZM165.842 18.736C165.842 19.44 165.706 20.048 165.434 20.56C165.17 21.072 164.794 21.464 164.306 21.736C163.818 22.008 163.242 22.144 162.578 22.144C161.914 22.144 161.338 22.008 160.85 21.736C160.362 21.464 159.982 21.072 159.71 20.56C159.446 20.048 159.314 19.44 159.314 18.736C159.314 18.208 159.39 17.736 159.542 17.32C159.694 16.896 159.91 16.536 160.19 16.24C160.478 15.944 160.822 15.72 161.222 15.568C161.63 15.408 162.082 15.328 162.578 15.328C163.074 15.328 163.522 15.408 163.922 15.568C164.322 15.72 164.666 15.944 164.954 16.24C165.242 16.536 165.462 16.896 165.614 17.32C165.766 17.736 165.842 18.208 165.842 18.736ZM160.442 18.736C160.442 19.336 160.518 19.836 160.67 20.236C160.83 20.628 161.066 20.92 161.378 21.112C161.698 21.304 162.098 21.4 162.578 21.4C163.066 21.4 163.466 21.308 163.778 21.124C164.09 20.932 164.322 20.636 164.474 20.236C164.634 19.836 164.714 19.336 164.714 18.736C164.714 18.16 164.634 17.676 164.474 17.284C164.322 16.884 164.09 16.584 163.778 16.384C163.466 16.176 163.066 16.072 162.578 16.072C162.098 16.072 161.698 16.176 161.378 16.384C161.066 16.584 160.83 16.884 160.67 17.284C160.518 17.676 160.442 18.16 160.442 18.736ZM171.573 15.364V16.54C171.517 16.532 171.449 16.524 171.369 16.516C171.289 16.5 171.205 16.492 171.117 16.492C171.029 16.484 170.945 16.48 170.865 16.48C170.641 16.48 170.437 16.5 170.253 16.54C170.077 16.58 169.909 16.64 169.749 16.72C169.597 16.8 169.449 16.904 169.305 17.032C169.161 17.16 169.005 17.32 168.837 17.512V17.044C169.069 16.652 169.297 16.332 169.521 16.084C169.745 15.828 169.985 15.636 170.241 15.508C170.497 15.38 170.789 15.316 171.117 15.316C171.213 15.316 171.305 15.32 171.393 15.328C171.481 15.336 171.541 15.348 171.573 15.364ZM166.941 22V21.424H166.977C167.297 21.424 167.545 21.372 167.721 21.268C167.905 21.164 167.997 20.964 167.997 20.668V16.66C167.997 16.54 167.961 16.452 167.889 16.396C167.825 16.332 167.721 16.28 167.577 16.24C167.441 16.2 167.269 16.16 167.061 16.12L166.941 16.096V15.448H168.837L169.029 17.008L169.065 16.972V21.196C169.065 21.26 169.121 21.308 169.233 21.34C169.345 21.372 169.473 21.396 169.617 21.412C169.769 21.42 169.901 21.424 170.013 21.424H170.301V22H166.941ZM176.708 20.272C176.708 20.072 176.66 19.908 176.564 19.78C176.468 19.644 176.336 19.536 176.168 19.456C176.008 19.368 175.824 19.3 175.616 19.252C175.408 19.196 175.192 19.144 174.968 19.096C174.696 19.032 174.428 18.96 174.164 18.88C173.908 18.8 173.676 18.692 173.468 18.556C173.26 18.412 173.092 18.232 172.964 18.016C172.836 17.792 172.772 17.508 172.772 17.164C172.772 16.796 172.864 16.476 173.048 16.204C173.24 15.924 173.516 15.708 173.876 15.556C174.236 15.396 174.668 15.316 175.172 15.316C175.572 15.316 175.92 15.34 176.216 15.388C176.52 15.428 176.772 15.48 176.972 15.544C177.172 15.6 177.316 15.652 177.404 15.7V17.272H176.348V16C176.428 16 176.496 16.012 176.552 16.036C176.616 16.052 176.664 16.084 176.696 16.132C176.736 16.172 176.768 16.228 176.792 16.3C176.816 16.364 176.824 16.444 176.816 16.54C176.72 16.428 176.588 16.336 176.42 16.264C176.26 16.192 176.072 16.14 175.856 16.108C175.648 16.068 175.42 16.048 175.172 16.048C174.676 16.048 174.316 16.136 174.092 16.312C173.868 16.488 173.756 16.732 173.756 17.044C173.756 17.244 173.8 17.412 173.888 17.548C173.984 17.684 174.112 17.792 174.272 17.872C174.44 17.952 174.632 18.024 174.848 18.088C175.064 18.144 175.292 18.196 175.532 18.244C175.796 18.3 176.056 18.372 176.312 18.46C176.576 18.54 176.812 18.648 177.02 18.784C177.228 18.92 177.396 19.1 177.524 19.324C177.652 19.548 177.716 19.828 177.716 20.164C177.716 20.548 177.62 20.888 177.428 21.184C177.236 21.48 176.948 21.712 176.564 21.88C176.18 22.048 175.704 22.132 175.136 22.132C174.728 22.132 174.364 22.104 174.044 22.048C173.724 22 173.44 21.936 173.192 21.856C172.952 21.768 172.744 21.672 172.568 21.568V19.924H173.66V21.628C173.532 21.572 173.432 21.516 173.36 21.46C173.296 21.396 173.248 21.332 173.216 21.268C173.192 21.204 173.18 21.14 173.18 21.076C173.18 21.004 173.188 20.932 173.204 20.86C173.324 20.956 173.476 21.048 173.66 21.136C173.852 21.216 174.072 21.284 174.32 21.34C174.568 21.388 174.84 21.412 175.136 21.412C175.488 21.412 175.78 21.372 176.012 21.292C176.244 21.204 176.416 21.076 176.528 20.908C176.648 20.74 176.708 20.528 176.708 20.272Z" fill="#777777"/>
</svg>
